<?xml version="1.0" standalone="no"?>
<!DOCTYPE svg PUBLIC "-//W3C//DTD SVG 20010904//EN"
 "http://www.w3.org/TR/2001/REC-SVG-20010904/DTD/svg10.dtd">
<svg version="1.0" xmlns="http://www.w3.org/2000/svg"
 width="416.000000pt" height="428.000000pt" viewBox="0 0 416.000000 428.000000"
 preserveAspectRatio="xMidYMid meet">

<g transform="translate(0.000000,428.000000) scale(0.100000,-0.100000)"
fill="#000000" stroke="none">
<path style="fill:#edffff" d="M0 2140 l0 -2140 2080 0 2080 0 0 80 0 80 -80 0 -80 0 0 200 0 200
-80 0 -80 0 0 -200 0 -200 -160 0 -160 0 0 120 0 120 -80 0 -80 0 0 -120 0
-120 -160 0 -160 0 0 200 0 200 -80 0 -80 0 0 -200 0 -200 -160 0 -160 0 0
120 0 120 -80 0 -80 0 0 -120 0 -120 -160 0 -160 0 0 200 0 200 -80 0 -80 0 0
-200 0 -200 -160 0 -160 0 0 120 0 120 -80 0 -80 0 0 -120 0 -120 -160 0 -160
0 0 200 0 200 -80 0 -80 0 0 -200 0 -200 -160 0 -160 0 0 120 0 120 -80 0 -80
0 0 -120 0 -120 -160 0 -160 0 0 200 0 200 120 0 120 0 0 80 0 80 -120 0 -120
0 0 160 0 160 200 0 200 0 0 80 0 80 -200 0 -200 0 0 160 0 160 120 0 120 0 0
80 0 80 -120 0 -120 0 0 160 0 160 200 0 200 0 0 80 0 80 -200 0 -200 0 0 160
0 160 120 0 120 0 0 80 0 80 -120 0 -120 0 0 160 0 160 200 0 200 0 0 80 0 80
-200 0 -200 0 0 160 0 160 120 0 120 0 0 80 0 80 -120 0 -120 0 0 160 0 160
200 0 200 0 0 80 0 80 -200 0 -200 0 0 100 0 100 -80 0 -80 0 0 -2140z"/>
</g>
</svg>
