<?xml version="1.0" encoding="UTF-8" standalone="no"?>
<!-- Uploaded to: SVG Repo, www.svgrepo.com, Generator: SVG Repo Mixer Tools -->

<svg
   height="800"
   width="800"
   version="1.1"
   id="Capa_1"
   viewBox="0 0 494.747 494.747"
   xml:space="preserve"
   sodipodi:docname="buildingmeasure.svg"
   xmlns:inkscape="http://www.inkscape.org/namespaces/inkscape"
   xmlns:sodipodi="http://sodipodi.sourceforge.net/DTD/sodipodi-0.dtd"
   xmlns="http://www.w3.org/2000/svg"
   xmlns:svg="http://www.w3.org/2000/svg"><defs
   id="defs143" /><sodipodi:namedview
   id="namedview141"
   pagecolor="#000000"
   bordercolor="#000000"
   borderopacity="0.25"
   inkscape:showpageshadow="2"
   inkscape:pageopacity="0"
   inkscape:pagecheckerboard="0"
   inkscape:deskcolor="#d1d1d1"
   showgrid="false" />
<g
   id="g138">
	<path
   style="fill:#ffffff"
   d="M 484.837,240.948 294.807,100.803 c -8.657,-6.381 -20.451,-6.34 -29.068,0.089 L 78.091,241.037 c -10.795,8.055 -13.006,23.337 -4.95,34.124 8.064,10.787 23.337,13.006 34.132,4.942 l 25.158,-18.785 V 450.6 c 0,13.469 10.917,24.386 24.386,24.386 h 247.036 c 13.469,0 24.386,-10.917 24.386,-24.386 V 259.798 l 27.645,20.386 c 4.357,3.219 9.429,4.763 14.453,4.763 7.478,0 14.867,-3.43 19.647,-9.917 7.997,-10.826 5.688,-26.092 -5.147,-34.082 z M 379.466,232.063 V 426.214 H 181.202 V 232.063 c 0,-2.243 -0.398,-4.381 -0.967,-6.446 l 100.193,-74.824 100.282,73.954 c -0.74,2.326 -1.244,4.748 -1.244,7.316 z"
   id="path132" />
	
	<path
   style="fill:#ffffff"
   d="m 70.15,460.037 c 0,-6.73 -5.454,-12.193 -12.193,-12.193 H 24.386 v -31.433 h 14.753 c 4.487,0 8.129,-3.633 8.129,-8.129 0,-4.496 -3.642,-8.129 -8.129,-8.129 H 24.386 V 369.37 h 14.753 c 4.487,0 8.129,-3.633 8.129,-8.129 0,-4.495 -3.642,-8.129 -8.129,-8.129 H 24.386 v -30.783 h 14.753 c 4.487,0 8.129,-3.633 8.129,-8.129 0,-4.496 -3.642,-8.129 -8.129,-8.129 H 24.386 v -30.783 h 14.753 c 4.487,0 8.129,-3.633 8.129,-8.129 0,-4.495 -3.642,-8.129 -8.129,-8.129 H 24.386 v -30.783 h 14.753 c 4.487,0 8.129,-3.633 8.129,-8.129 0,-4.496 -3.642,-8.129 -8.129,-8.129 H 24.386 v -30.783 h 14.753 c 4.487,0 8.129,-3.633 8.129,-8.129 0,-4.495 -3.642,-8.129 -8.129,-8.129 H 24.386 v -33.856 h 33.571 c 6.739,0 12.193,-5.462 12.193,-12.193 0,-6.731 -5.454,-12.193 -12.193,-12.193 H 12.193 C 5.454,106.713 0,112.175 0,118.906 v 341.14 c 0,6.73 5.454,12.193 12.193,12.193 h 45.764 c 6.738,-0.009 12.193,-5.471 12.193,-12.202 z"
   id="path136"
   inkscape:export-filename="path136.svg"
   inkscape:export-xdpi="96"
   inkscape:export-ydpi="96" />
</g>
</svg>
