<?xml version="1.0" encoding="UTF-8" standalone="no"?>
<!-- Uploaded to: SVG Repo, www.svgrepo.com, Generator: SVG Repo Mixer Tools -->

<svg
   height="800"
   width="800"
   version="1.1"
   id="Capa_1"
   viewBox="0 0 494.747 494.747"
   xml:space="preserve"
   sodipodi:docname="buildingmeasure.svg"
   xmlns:inkscape="http://www.inkscape.org/namespaces/inkscape"
   xmlns:sodipodi="http://sodipodi.sourceforge.net/DTD/sodipodi-0.dtd"
   xmlns="http://www.w3.org/2000/svg"
   xmlns:svg="http://www.w3.org/2000/svg"><defs
   id="defs143" /><sodipodi:namedview
   id="namedview141"
   pagecolor="#000000"
   bordercolor="#000000"
   borderopacity="0.25"
   inkscape:showpageshadow="2"
   inkscape:pageopacity="0"
   inkscape:pagecheckerboard="0"
   inkscape:deskcolor="#d1d1d1"
   showgrid="false" />
<g
   id="g138">
	<path
   style="fill:#ffffff"
   d="M 484.837,240.948 294.807,100.803 c -8.657,-6.381 -20.451,-6.34 -29.068,0.089 L 78.091,241.037 c -10.795,8.055 -13.006,23.337 -4.95,34.124 8.064,10.787 23.337,13.006 34.132,4.942 l 25.158,-18.785 V 450.6 c 0,13.469 10.917,24.386 24.386,24.386 h 247.036 c 13.469,0 24.386,-10.917 24.386,-24.386 V 259.798 l 27.645,20.386 c 4.357,3.219 9.429,4.763 14.453,4.763 7.478,0 14.867,-3.43 19.647,-9.917 7.997,-10.826 5.688,-26.092 -5.147,-34.082 z M 379.466,232.063 V 426.214 H 181.202 V 232.063 c 0,-2.243 -0.398,-4.381 -0.967,-6.446 l 100.193,-74.824 100.282,73.954 c -0.74,2.326 -1.244,4.748 -1.244,7.316 z"
   id="path132" />
	<path
   style="fill:#ffffff"
   d="m 446.194,89.911 c 6.739,0 12.193,-5.462 12.193,-12.193 V 31.954 c 0,-6.73 -5.454,-12.193 -12.193,-12.193 h -341.14 c -6.739,0 -12.193,5.462 -12.193,12.193 v 45.764 c 0,6.73 5.454,12.193 12.193,12.193 6.739,0 12.193,-5.462 12.193,-12.193 V 44.147 H 148.68 V 58.9 c 0,4.495 3.642,8.129 8.129,8.129 4.487,0 8.129,-3.633 8.129,-8.129 V 44.147 h 30.783 V 58.9 c 0,4.495 3.642,8.129 8.129,8.129 4.487,0 8.129,-3.633 8.129,-8.129 V 44.147 h 30.783 V 58.9 c 0,4.495 3.642,8.129 8.129,8.129 4.487,0 8.129,-3.633 8.129,-8.129 V 44.147 H 289.8 V 58.9 c 0,4.495 3.642,8.129 8.129,8.129 4.487,0 8.129,-3.633 8.129,-8.129 V 44.147 h 30.791 V 58.9 c 0,4.495 3.642,8.129 8.129,8.129 4.487,0 8.129,-3.633 8.129,-8.129 V 44.147 H 383.89 V 58.9 c 0,4.495 3.642,8.129 8.129,8.129 4.487,0 8.129,-3.633 8.129,-8.129 V 44.147 h 33.856 v 33.571 c -0.003,6.731 5.459,12.193 12.19,12.193 z"
   id="path134" />
	<path
   style="fill:#ffffff"
   d="m 70.15,460.037 c 0,-6.73 -5.454,-12.193 -12.193,-12.193 H 24.386 v -31.433 h 14.753 c 4.487,0 8.129,-3.633 8.129,-8.129 0,-4.496 -3.642,-8.129 -8.129,-8.129 H 24.386 V 369.37 h 14.753 c 4.487,0 8.129,-3.633 8.129,-8.129 0,-4.495 -3.642,-8.129 -8.129,-8.129 H 24.386 v -30.783 h 14.753 c 4.487,0 8.129,-3.633 8.129,-8.129 0,-4.496 -3.642,-8.129 -8.129,-8.129 H 24.386 v -30.783 h 14.753 c 4.487,0 8.129,-3.633 8.129,-8.129 0,-4.495 -3.642,-8.129 -8.129,-8.129 H 24.386 v -30.783 h 14.753 c 4.487,0 8.129,-3.633 8.129,-8.129 0,-4.496 -3.642,-8.129 -8.129,-8.129 H 24.386 v -30.783 h 14.753 c 4.487,0 8.129,-3.633 8.129,-8.129 0,-4.495 -3.642,-8.129 -8.129,-8.129 H 24.386 v -33.856 h 33.571 c 6.739,0 12.193,-5.462 12.193,-12.193 0,-6.731 -5.454,-12.193 -12.193,-12.193 H 12.193 C 5.454,106.713 0,112.175 0,118.906 v 341.14 c 0,6.73 5.454,12.193 12.193,12.193 h 45.764 c 6.738,-0.009 12.193,-5.471 12.193,-12.202 z"
   id="path136" />
<path
   style="fill:#000000;fill-opacity:0;stroke:#ffffff;stroke-width:48.3716;stroke-linecap:round;stroke-linejoin:bevel;stroke-miterlimit:3.8;stroke-dasharray:none"
   d="m 293.72128,530.65004 c 0,-87.1965 -0.29536,-160.19488 -0.65634,-162.21861 -0.70397,-3.9465 -4.34341,-1.12831 135.86525,-105.20678 l 24.70425,-18.33824 80.58903,59.29284 c 60.70752,44.66514 80.37028,59.76644 79.70237,61.21258 -0.48766,1.05586 -1.04354,74.3422 -1.2353,162.85853 L 612.3419,689.18914 H 453.03159 293.72128 Z"
   id="path1512"
   transform="scale(0.61843375)" /><path
   style="fill:#000000;fill-opacity:0;stroke:#ffffff;stroke-width:48.3716;stroke-linecap:round;stroke-linejoin:bevel;stroke-miterlimit:3.8;stroke-dasharray:none"
   d="m 318.03807,520.98874 v -143.8836 l 29.75608,-22.30355 c 16.36584,-12.26696 46.9031,-35.03505 67.86058,-50.59578 l 38.1045,-28.29222 39.32528,28.92067 c 86.84372,63.86672 96.38864,71.24793 95.68674,73.9958 -0.35961,1.40781 -0.6617,66.34325 -0.67131,144.30097 l -0.0175,141.74132 h -135.0222 -135.0222 z"
   id="path1514"
   transform="scale(0.61843375)" /><path
   style="fill:#000000;fill-opacity:0;stroke:#ffffff;stroke-width:48.3716;stroke-linecap:round;stroke-linejoin:bevel;stroke-miterlimit:3.8;stroke-dasharray:none"
   d="M 342.35487,515.26049 V 389.96542 l 54.37668,-40.47705 c 29.90717,-22.26238 55.21002,-40.79684 56.22855,-41.18769 1.75602,-0.67385 31.75371,20.82231 88.08857,63.12372 l 22.71701,17.05802 V 514.51899 640.55555 H 453.06027 342.35487 Z"
   id="path1516"
   transform="scale(0.61843375)" /><path
   style="fill:#000000;fill-opacity:0;stroke:#ffffff;stroke-width:48.3716;stroke-linecap:round;stroke-linejoin:bevel;stroke-miterlimit:3.8;stroke-dasharray:none"
   d="M 366.67166,509.61353 V 402.9883 l 3.51954,-2.611 c 1.93574,-1.43605 21.52223,-15.96664 43.52552,-32.2902 l 40.00599,-29.6792 6.06794,4.1323 c 3.33736,2.27276 22.62575,16.45664 42.86308,31.51971 l 36.79515,27.38742 v 107.39572 107.39571 h -86.38861 -86.38861 z"
   id="path1518"
   transform="scale(0.61843375)" /><path
   style="fill:#000000;fill-opacity:0;stroke:#ffffff;stroke-width:48.3716;stroke-linecap:round;stroke-linejoin:bevel;stroke-miterlimit:3.8;stroke-dasharray:none"
   d="m 391.00733,503.93357 0.0189,-87.9884 30.75693,-22.73696 c 16.91631,-12.50533 31.27712,-22.87196 31.91291,-23.03697 0.63579,-0.165 14.719,9.70815 31.29601,21.94034 l 30.14003,22.24033 v 88.78502 88.78504 h -62.07182 -62.07181 z"
   id="path1526"
   transform="scale(0.61843375)" /><path
   style="fill:#000000;fill-opacity:0;stroke:#ffffff;stroke-width:48.3716;stroke-linecap:round;stroke-linejoin:bevel;stroke-miterlimit:3.8;stroke-dasharray:none"
   d="m 415.33634,498.17432 0.0311,-69.43084 18.52703,-13.43823 c 10.18987,-7.39103 19.06181,-13.61657 19.71544,-13.83455 0.65362,-0.21798 9.29223,5.50343 19.1969,12.71424 l 18.0085,13.11058 v 70.15482 70.15483 h -37.75503 -37.75502 z"
   id="path1528"
   transform="scale(0.61843375)" /><path
   style="fill:#000000;fill-opacity:0;stroke:#ffffff;stroke-width:48.3716;stroke-linecap:round;stroke-linejoin:bevel;stroke-miterlimit:3.8;stroke-dasharray:none"
   d="m 439.6706,492.41508 0.0486,-50.87329 7.09538,-4.92811 7.09539,-4.9281 6.29181,4.28819 6.29181,4.28819 0.002,51.51321 0.002,51.51321 h -13.43823 -13.43823 z"
   id="path1530"
   transform="scale(0.61843375)" /></g>
</svg>
