<!DOCTYPE svg PUBLIC "-//W3C//DTD SVG 1.1//EN" "http://www.w3.org/Graphics/SVG/1.1/DTD/svg11.dtd">
<!-- Uploaded to: SVG Repo, www.svgrepo.com, Transformed by: SVG Repo Mixer Tools -->
<svg fill="#FFFFFF" height="800px" width="800px" version="1.1" id="Layer_1" xmlns="http://www.w3.org/2000/svg" xmlns:xlink="http://www.w3.org/1999/xlink" viewBox="-66.56 -66.56 645.12 645.12" xml:space="preserve" transform="rotate(180)">
<g id="SVGRepo_bgCarrier" stroke-width="0"/>
<g id="SVGRepo_tracerCarrier" stroke-linecap="round" stroke-linejoin="round"/>
<g id="SVGRepo_iconCarrier"> <g> <g> <path d="M511.899,94.273l-2.07-55.356c-0.743-19.864-16.885-36.005-36.748-36.748l-55.356-2.07 c-40.109-1.49-79.386,13.917-107.766,42.297l-64.241,64.241c-6.533,6.533-6.533,17.125,0,23.659l38.596,38.596L12.157,441.051 c-16.209,16.209-16.209,42.582,0,58.791c8.105,8.105,18.75,12.157,29.396,12.157s21.291-4.052,29.395-12.157l272.159-272.159 l38.596,38.596c3.267,3.267,7.548,4.901,11.829,4.901s8.563-1.633,11.829-4.901l64.241-64.241 C497.983,173.66,513.399,134.381,511.899,94.273z M47.289,476.183c-3.164,3.163-8.31,3.163-11.474,0 c-3.163-3.163-3.163-8.31,0-11.474L237.844,262.68l11.474,11.474L47.289,476.183z M272.978,250.495l-11.474-11.474l46.47-46.47 l11.474,11.474L272.978,250.495z M445.945,178.381l-52.413,52.411L281.208,118.467l52.411-52.411 c21.82-21.82,52.02-33.67,82.857-32.519l55.356,2.07c2.466,0.093,4.47,2.096,4.562,4.562l2.07,55.356 C479.617,126.36,467.765,156.561,445.945,178.381z"/> </g> </g> </g>
</svg>