<?xml version="1.0" encoding="iso-8859-1"?>
<!-- Generator: Adobe Illustrator 16.0.0, SVG Export Plug-In . SVG Version: 6.00 Build 0)  -->
<!DOCTYPE svg PUBLIC "-//W3C//DTD SVG 1.1//EN" "http://www.w3.org/Graphics/SVG/1.1/DTD/svg11.dtd">
<svg version="1.1" id="Capa_1" xmlns="http://www.w3.org/2000/svg" xmlns:xlink="http://www.w3.org/1999/xlink" x="0px" y="0px"
	 width="441.15px" height="441.15px" viewBox="0 0 441.15 441.15" style="enable-background:new 0 0 441.15 441.15;"
	 xml:space="preserve">
<g>
	<path fill="#ffffff" d="M440.81,217.398c-0.8-3.695-14.718-38.064-48.19-72.026c-31.087-31.54-86.17-69.137-172.044-69.137
		c-85.877,0-140.96,37.599-172.047,69.14c-17.557,17.814-29.449,35.627-36.332,47.435c-3.157,5.416-5.969,10.749-8.355,15.849
		C0.574,215.638,0,217.42,0,220.575c0,3.155,0.574,4.936,3.841,11.916c2.387,5.1,5.198,10.434,8.355,15.85
		c6.883,11.807,18.775,29.621,36.332,47.435c31.087,31.541,86.17,69.14,172.047,69.14s140.96-37.599,172.047-69.14
		c17.557-17.813,29.448-35.627,36.332-47.435c3.156-5.416,5.969-10.75,8.355-15.85c3.266-6.979,3.841-8.761,3.841-11.916
		C441.15,219.506,441.036,218.441,440.81,217.398z M220.575,299.507c-43.594,0-78.934-35.34-78.934-78.934
		s35.34-78.934,78.934-78.934s78.934,35.34,78.934,78.934S264.169,299.507,220.575,299.507z"/>
		
	<path fill="#000000" d="M0 50 L50 0 L441.15 391.15 L391.15 441.15 Z" />
	<path fill="#000000" d="M0 391.15 L391.15 0 L441.15 50 L50 441.15 Z" />
</g>
</svg>
